<svg width="600" height="350" viewBox="0 0 600 350" fill="none" xmlns="http://www.w3.org/2000/svg">
<rect width="600" height="350" fill="url(#paint0_radial_20_13)" fill-opacity="0.8"/>
<path fill-rule="evenodd" clip-rule="evenodd" d="M570 293.5H566.25L565 291C564.264 289.546 563.88 288.5 562.5 288.5H547.5C546.12 288.5 545.662 289.692 545 291L543.75 293.5H540C537.239 293.5 535 295.739 535 298.5V318.5C535 321.261 537.239 323.5 540 323.5H570C572.761 323.5 575 321.261 575 318.5V298.5C575 295.739 572.761 293.5 570 293.5ZM555 318.5C549.477 318.5 545 314.023 545 308.5C545 302.977 549.477 298.5 555 298.5C560.523 298.5 565 302.977 565 308.5C565 314.023 560.523 318.5 555 318.5ZM555 301C550.859 301 547.5 304.359 547.5 308.5C547.5 312.641 550.859 316 555 316C559.141 316 562.5 312.641 562.5 308.5C562.5 304.359 559.141 301 555 301Z" fill="black"/>
<g filter="url(#filter0_d_20_13)">
<path d="M87.32 160.44C85.08 160.44 83.4 159.933 82.28 158.92C81.16 157.853 80.6 156.387 80.6 154.52C80.6 152.653 81.32 151.107 82.76 149.88C84.2533 148.6 86.0933 147.96 88.28 147.96C90.2533 147.96 91.8533 148.44 93.08 149.4C94.3067 150.36 94.92 151.72 94.92 153.48C94.92 155.613 94.2267 157.32 92.84 158.6C91.4533 159.827 89.6133 160.44 87.32 160.44ZM86.68 203.4C83.2133 203.4 80.68 202.173 79.08 199.72C77.5333 197.267 76.76 194.013 76.76 189.96C76.76 187.56 77.0533 184.493 77.64 180.76C78.28 176.973 79.08 173.453 80.04 170.2C80.52 168.493 81.16 167.32 81.96 166.68C82.76 166.04 84.04 165.72 85.8 165.72C88.52 165.72 89.88 166.627 89.88 168.44C89.88 169.773 89.3733 172.867 88.36 177.72C87.08 183.587 86.44 187.56 86.44 189.64C86.44 191.24 86.6533 192.467 87.08 193.32C87.5067 194.173 88.2267 194.6 89.24 194.6C90.2 194.6 91.4 193.933 92.84 192.6C94.28 191.267 96.2 189.16 98.6 186.28C99.24 185.533 99.96 185.16 100.76 185.16C101.453 185.16 101.987 185.48 102.36 186.12C102.787 186.76 103 187.64 103 188.76C103 190.893 102.493 192.547 101.48 193.72C96.2 200.173 91.2667 203.4 86.68 203.4ZM119.648 191.72C120.234 191.187 120.821 190.92 121.408 190.92C122.048 190.92 122.554 191.293 122.928 192.04C123.354 192.733 123.568 193.587 123.568 194.6C123.568 196.84 122.768 198.627 121.168 199.96C118.394 202.253 115.248 203.4 111.728 203.4C106.661 203.4 102.954 201.293 100.608 197.08C98.2608 192.813 97.0875 187.267 97.0875 180.44C97.0875 173.933 97.9142 166.52 99.5675 158.2C101.274 149.88 103.754 142.733 107.008 136.76C110.314 130.787 114.234 127.8 118.768 127.8C121.328 127.8 123.328 129 124.768 131.4C126.261 133.747 127.008 137.133 127.008 141.56C127.008 147.907 125.248 155.267 121.728 163.64C118.261 172.013 113.514 180.28 107.488 188.44C107.861 190.627 108.528 192.2 109.488 193.16C110.448 194.12 111.754 194.6 113.408 194.6C114.314 194.6 115.328 194.333 116.448 193.8C117.621 193.267 118.688 192.573 119.648 191.72ZM117.008 135.72C115.781 135.72 114.394 137.933 112.848 142.36C111.301 146.787 109.941 152.28 108.768 158.84C107.594 165.4 106.954 171.693 106.848 177.72C110.634 171.48 113.648 165.24 115.888 159C118.128 152.707 119.248 146.973 119.248 141.8C119.248 137.747 118.501 135.72 117.008 135.72ZM192.593 185.16C193.286 185.16 193.819 185.48 194.193 186.12C194.619 186.76 194.833 187.64 194.833 188.76C194.833 190.893 194.326 192.547 193.312 193.72C191.126 196.387 188.726 198.68 186.113 200.6C183.499 202.467 180.913 203.4 178.353 203.4C174.299 203.4 171.206 201.027 169.073 196.28C166.833 199.107 164.859 201 163.153 201.96C161.499 202.92 159.553 203.4 157.313 203.4C154.059 203.4 151.366 202.2 149.233 199.8C147.153 197.347 146.113 194.173 146.113 190.28C146.113 186.013 147.019 182.067 148.833 178.44C150.646 174.76 153.126 171.773 156.273 169.48C159.473 167.133 163.046 165.747 166.993 165.32C168.006 154.973 169.926 146.147 172.753 138.84C175.633 131.48 179.393 127.8 184.033 127.8C186.326 127.8 188.219 128.84 189.713 130.92C191.259 133 192.033 136.147 192.033 140.36C192.033 146.333 190.566 153.32 187.633 161.32C184.699 169.32 180.779 177.533 175.873 185.96C176.086 189.053 176.539 191.267 177.233 192.6C177.979 193.933 178.913 194.6 180.033 194.6C181.473 194.6 182.939 193.96 184.432 192.68C185.926 191.4 187.926 189.267 190.433 186.28C191.073 185.533 191.793 185.16 192.593 185.16ZM183.153 135.64C182.139 135.64 181.126 137.453 180.113 141.08C179.099 144.653 178.219 149.347 177.473 155.16C176.779 160.973 176.273 167.053 175.953 173.4C181.926 160.387 184.913 149.933 184.913 142.04C184.913 140.013 184.726 138.44 184.353 137.32C184.033 136.2 183.633 135.64 183.153 135.64ZM160.113 195.32C161.126 195.32 162.139 194.92 163.153 194.12C164.166 193.267 165.446 191.72 166.993 189.48C166.459 186.6 166.193 183.373 166.193 179.8C166.193 178.52 166.246 176.44 166.353 173.56C163.419 174.467 160.966 176.44 158.993 179.48C157.073 182.467 156.113 185.8 156.113 189.48C156.113 193.373 157.446 195.32 160.113 195.32ZM229.124 178.44C229.818 178.44 230.351 178.787 230.724 179.48C231.098 180.173 231.284 181.053 231.284 182.12C231.284 184.68 230.511 186.2 228.964 186.68C225.764 187.8 222.244 188.44 218.404 188.6C217.391 193.08 215.391 196.68 212.404 199.4C209.418 202.067 206.031 203.4 202.244 203.4C199.044 203.4 196.298 202.627 194.004 201.08C191.764 199.533 190.058 197.48 188.884 194.92C187.711 192.36 187.124 189.587 187.124 186.6C187.124 182.547 187.898 178.947 189.444 175.8C190.991 172.6 193.124 170.12 195.844 168.36C198.564 166.547 201.578 165.64 204.884 165.64C208.938 165.64 212.191 167.053 214.644 169.88C217.151 172.653 218.618 176.093 219.044 180.2C221.551 180.04 224.538 179.507 228.004 178.6C228.431 178.493 228.804 178.44 229.124 178.44ZM202.884 194.92C204.591 194.92 206.058 194.227 207.284 192.84C208.564 191.453 209.418 189.453 209.844 186.84C208.191 185.72 206.911 184.253 206.004 182.44C205.151 180.627 204.724 178.707 204.724 176.68C204.724 175.827 204.804 174.973 204.964 174.12H204.564C202.431 174.12 200.644 175.16 199.204 177.24C197.818 179.267 197.124 182.147 197.124 185.88C197.124 188.813 197.684 191.053 198.804 192.6C199.978 194.147 201.338 194.92 202.884 194.92ZM230.098 203.4C228.071 203.4 226.631 202.333 225.778 200.2C224.978 198.067 224.578 194.653 224.578 189.96C224.578 183.027 225.565 176.44 227.538 170.2C228.018 168.653 228.791 167.533 229.858 166.84C230.978 166.093 232.525 165.72 234.498 165.72C235.565 165.72 236.311 165.853 236.738 166.12C237.165 166.387 237.378 166.893 237.378 167.64C237.378 168.493 236.978 170.413 236.178 173.4C235.645 175.533 235.218 177.4 234.898 179C234.578 180.6 234.311 182.573 234.098 184.92C235.858 180.333 237.831 176.6 240.018 173.72C242.205 170.84 244.338 168.787 246.418 167.56C248.551 166.333 250.498 165.72 252.258 165.72C255.725 165.72 257.458 167.453 257.458 170.92C257.458 171.613 257.218 173.293 256.738 175.96C256.311 178.093 256.098 179.427 256.098 179.96C256.098 181.827 256.765 182.76 258.098 182.76C259.591 182.76 261.511 181.587 263.858 179.24C264.551 178.547 265.271 178.2 266.018 178.2C266.711 178.2 267.245 178.52 267.618 179.16C268.045 179.747 268.258 180.547 268.258 181.56C268.258 183.533 267.725 185.08 266.658 186.2C265.165 187.747 263.405 189.08 261.378 190.2C259.405 191.267 257.298 191.8 255.058 191.8C252.231 191.8 250.071 191.08 248.578 189.64C247.138 188.2 246.418 186.253 246.418 183.8C246.418 183 246.498 182.2 246.658 181.4C246.765 180.333 246.818 179.613 246.818 179.24C246.818 178.387 246.525 177.96 245.938 177.96C245.138 177.96 244.071 178.867 242.738 180.68C241.458 182.44 240.178 184.787 238.898 187.72C237.618 190.653 236.578 193.747 235.778 197C235.191 199.507 234.498 201.213 233.698 202.12C232.951 202.973 231.751 203.4 230.098 203.4ZM266.504 203.4C264.478 203.4 263.038 202.333 262.184 200.2C261.384 198.067 260.984 194.653 260.984 189.96C260.984 183.027 261.971 176.44 263.944 170.2C264.424 168.653 265.198 167.533 266.264 166.84C267.384 166.093 268.931 165.72 270.904 165.72C271.971 165.72 272.718 165.853 273.144 166.12C273.571 166.387 273.784 166.893 273.784 167.64C273.784 168.493 273.384 170.413 272.584 173.4C272.051 175.533 271.624 177.4 271.304 179C270.984 180.547 270.718 182.493 270.504 184.84C271.944 180.68 273.651 177.16 275.624 174.28C277.651 171.4 279.704 169.267 281.784 167.88C283.918 166.44 285.918 165.72 287.784 165.72C289.651 165.72 290.958 166.147 291.704 167C292.504 167.853 292.904 169.16 292.904 170.92C292.904 172.627 292.398 175.72 291.384 180.2C290.958 182.12 290.664 183.56 290.504 184.52C293.171 177.96 296.131 173.187 299.384 170.2C302.638 167.213 305.678 165.72 308.504 165.72C311.971 165.72 313.704 167.453 313.704 170.92C313.704 173 313.118 176.76 311.944 182.2C310.931 186.84 310.424 189.907 310.424 191.4C310.424 193.533 311.198 194.6 312.744 194.6C313.811 194.6 315.064 193.96 316.504 192.68C317.998 191.347 319.971 189.213 322.424 186.28C323.064 185.533 323.784 185.16 324.584 185.16C325.278 185.16 325.811 185.48 326.184 186.12C326.611 186.76 326.824 187.64 326.824 188.76C326.824 190.893 326.318 192.547 325.304 193.72C323.011 196.547 320.531 198.867 317.864 200.68C315.251 202.493 312.264 203.4 308.904 203.4C306.184 203.4 304.131 202.627 302.744 201.08C301.358 199.48 300.664 197.187 300.664 194.2C300.664 192.707 301.038 190.04 301.784 186.2C302.478 182.84 302.824 180.52 302.824 179.24C302.824 178.387 302.531 177.96 301.944 177.96C301.251 177.96 300.264 178.867 298.984 180.68C297.704 182.44 296.424 184.787 295.144 187.72C293.864 190.653 292.824 193.747 292.024 197C291.438 199.56 290.744 201.267 289.944 202.12C289.198 202.973 287.971 203.4 286.264 203.4C284.504 203.4 283.171 202.573 282.264 200.92C281.411 199.213 280.984 197.16 280.984 194.76C280.984 192.733 281.251 189.8 281.784 185.96C282.211 182.547 282.424 180.307 282.424 179.24C282.424 178.387 282.131 177.96 281.544 177.96C280.744 177.96 279.731 178.92 278.504 180.84C277.278 182.76 276.078 185.213 274.904 188.2C273.784 191.187 272.878 194.12 272.184 197C271.598 199.507 270.904 201.213 270.104 202.12C269.358 202.973 268.158 203.4 266.504 203.4ZM330.836 160.44C328.596 160.44 326.916 159.933 325.796 158.92C324.676 157.853 324.116 156.387 324.116 154.52C324.116 152.653 324.836 151.107 326.276 149.88C327.769 148.6 329.609 147.96 331.796 147.96C333.769 147.96 335.369 148.44 336.596 149.4C337.822 150.36 338.436 151.72 338.436 153.48C338.436 155.613 337.742 157.32 336.356 158.6C334.969 159.827 333.129 160.44 330.836 160.44ZM330.196 203.4C326.729 203.4 324.196 202.173 322.596 199.72C321.049 197.267 320.276 194.013 320.276 189.96C320.276 187.56 320.569 184.493 321.156 180.76C321.796 176.973 322.596 173.453 323.556 170.2C324.036 168.493 324.676 167.32 325.476 166.68C326.276 166.04 327.556 165.72 329.316 165.72C332.036 165.72 333.396 166.627 333.396 168.44C333.396 169.773 332.889 172.867 331.876 177.72C330.596 183.587 329.956 187.56 329.956 189.64C329.956 191.24 330.169 192.467 330.596 193.32C331.022 194.173 331.742 194.6 332.756 194.6C333.716 194.6 334.916 193.933 336.356 192.6C337.796 191.267 339.716 189.16 342.116 186.28C342.756 185.533 343.476 185.16 344.276 185.16C344.969 185.16 345.502 185.48 345.876 186.12C346.302 186.76 346.516 187.64 346.516 188.76C346.516 190.893 346.009 192.547 344.996 193.72C339.716 200.173 334.782 203.4 330.196 203.4ZM381.003 185.32C381.696 185.32 382.23 185.667 382.603 186.36C383.03 187 383.243 187.827 383.243 188.84C383.243 190.067 383.056 191.027 382.683 191.72C382.31 192.413 381.723 193.027 380.923 193.56C376.336 196.653 372.976 198.947 370.843 200.44L365.723 203.88C363.696 214.92 361.03 223.587 357.723 229.88C354.47 236.227 350.31 239.4 345.243 239.4C342.523 239.4 340.31 238.547 338.603 236.84C336.896 235.187 336.043 233 336.043 230.28C336.043 226.493 337.536 222.413 340.523 218.04C343.51 213.72 349.11 208.387 357.323 202.04L357.803 198.92C356.896 200.36 355.696 201.48 354.203 202.28C352.763 203.027 351.323 203.4 349.883 203.4C346.576 203.4 343.936 202.2 341.963 199.8C339.99 197.4 339.003 194.253 339.003 190.36C339.003 186.093 339.99 182.067 341.963 178.28C343.936 174.44 346.55 171.373 349.803 169.08C353.11 166.733 356.603 165.56 360.283 165.56C361.456 165.56 362.23 165.8 362.603 166.28C363.03 166.707 363.376 167.507 363.643 168.68C364.656 168.467 365.83 168.36 367.163 168.36C368.496 168.36 369.43 168.573 369.963 169C370.55 169.373 370.843 170.147 370.843 171.32C370.843 171.96 370.816 172.467 370.763 172.84C370.55 174.493 369.883 178.68 368.763 185.4C368.55 186.68 368.31 188.093 368.043 189.64C367.83 191.133 367.59 192.733 367.323 194.44C371.43 191.24 375.376 188.413 379.163 185.96C379.856 185.533 380.47 185.32 381.003 185.32ZM352.763 195.32C353.99 195.32 355.163 194.573 356.283 193.08C357.403 191.587 358.203 189.453 358.683 186.68L361.243 173C359.056 173.053 357.03 173.907 355.163 175.56C353.296 177.16 351.803 179.293 350.683 181.96C349.563 184.627 349.003 187.453 349.003 190.44C349.003 192.093 349.323 193.32 349.963 194.12C350.656 194.92 351.59 195.32 352.763 195.32ZM346.123 231.64C347.456 231.64 348.95 230.04 350.603 226.84C352.31 223.64 353.936 218.547 355.483 211.56C351.376 215.08 348.416 218.253 346.603 221.08C344.79 223.907 343.883 226.387 343.883 228.52C343.883 229.427 344.043 230.173 344.363 230.76C344.736 231.347 345.323 231.64 346.123 231.64ZM408.644 185.16C409.338 185.16 409.871 185.48 410.244 186.12C410.671 186.76 410.884 187.64 410.884 188.76C410.884 190.893 410.378 192.547 409.364 193.72C407.071 196.547 404.564 198.867 401.844 200.68C399.178 202.493 396.138 203.4 392.724 203.4C388.031 203.4 384.538 201.267 382.244 197C380.004 192.733 378.884 187.213 378.884 180.44C378.884 173.933 379.711 166.52 381.364 158.2C383.071 149.88 385.551 142.733 388.804 136.76C392.111 130.787 396.031 127.8 400.564 127.8C403.124 127.8 405.124 129 406.564 131.4C408.058 133.747 408.804 137.133 408.804 141.56C408.804 147.907 407.044 155.267 403.524 163.64C400.004 172.013 395.231 180.307 389.204 188.52C389.578 190.707 390.191 192.28 391.044 193.24C391.898 194.147 393.018 194.6 394.404 194.6C396.591 194.6 398.511 193.987 400.164 192.76C401.818 191.48 403.924 189.32 406.484 186.28C407.124 185.533 407.844 185.16 408.644 185.16ZM398.804 135.72C397.578 135.72 396.191 137.933 394.644 142.36C393.098 146.787 391.738 152.28 390.564 158.84C389.391 165.4 388.751 171.693 388.644 177.72C392.431 171.48 395.444 165.24 397.684 159C399.924 152.707 401.044 146.973 401.044 141.8C401.044 137.747 400.298 135.72 398.804 135.72ZM414.898 160.44C412.658 160.44 410.978 159.933 409.858 158.92C408.738 157.853 408.178 156.387 408.178 154.52C408.178 152.653 408.898 151.107 410.338 149.88C411.831 148.6 413.671 147.96 415.858 147.96C417.831 147.96 419.431 148.44 420.658 149.4C421.885 150.36 422.498 151.72 422.498 153.48C422.498 155.613 421.805 157.32 420.418 158.6C419.031 159.827 417.191 160.44 414.898 160.44ZM414.258 203.4C410.791 203.4 408.258 202.173 406.658 199.72C405.111 197.267 404.338 194.013 404.338 189.96C404.338 187.56 404.631 184.493 405.218 180.76C405.858 176.973 406.658 173.453 407.618 170.2C408.098 168.493 408.738 167.32 409.538 166.68C410.338 166.04 411.618 165.72 413.378 165.72C416.098 165.72 417.458 166.627 417.458 168.44C417.458 169.773 416.951 172.867 415.938 177.72C414.658 183.587 414.018 187.56 414.018 189.64C414.018 191.24 414.231 192.467 414.658 193.32C415.085 194.173 415.805 194.6 416.818 194.6C417.778 194.6 418.978 193.933 420.418 192.6C421.858 191.267 423.778 189.16 426.178 186.28C426.818 185.533 427.538 185.16 428.338 185.16C429.031 185.16 429.565 185.48 429.938 186.12C430.365 186.76 430.578 187.64 430.578 188.76C430.578 190.893 430.071 192.547 429.058 193.72C423.778 200.173 418.845 203.4 414.258 203.4ZM464.906 178.44C465.599 178.44 466.132 178.787 466.506 179.48C466.879 180.173 467.066 181.053 467.066 182.12C467.066 184.68 466.292 186.2 464.746 186.68C461.546 187.8 458.026 188.44 454.186 188.6C453.172 193.08 451.172 196.68 448.186 199.4C445.199 202.067 441.812 203.4 438.026 203.4C434.826 203.4 432.079 202.627 429.786 201.08C427.546 199.533 425.839 197.48 424.666 194.92C423.492 192.36 422.906 189.587 422.906 186.6C422.906 182.547 423.679 178.947 425.226 175.8C426.772 172.6 428.906 170.12 431.626 168.36C434.346 166.547 437.359 165.64 440.666 165.64C444.719 165.64 447.972 167.053 450.426 169.88C452.932 172.653 454.399 176.093 454.826 180.2C457.332 180.04 460.319 179.507 463.786 178.6C464.212 178.493 464.586 178.44 464.906 178.44ZM438.666 194.92C440.372 194.92 441.839 194.227 443.066 192.84C444.346 191.453 445.199 189.453 445.626 186.84C443.972 185.72 442.692 184.253 441.786 182.44C440.932 180.627 440.506 178.707 440.506 176.68C440.506 175.827 440.586 174.973 440.746 174.12H440.346C438.212 174.12 436.426 175.16 434.986 177.24C433.599 179.267 432.906 182.147 432.906 185.88C432.906 188.813 433.466 191.053 434.586 192.6C435.759 194.147 437.119 194.92 438.666 194.92ZM465.879 203.4C463.853 203.4 462.413 202.333 461.559 200.2C460.759 198.067 460.359 194.653 460.359 189.96C460.359 183.027 461.346 176.44 463.319 170.2C463.799 168.653 464.573 167.533 465.639 166.84C466.759 166.093 468.306 165.72 470.279 165.72C471.346 165.72 472.093 165.853 472.519 166.12C472.946 166.387 473.159 166.893 473.159 167.64C473.159 168.493 472.759 170.413 471.959 173.4C471.426 175.533 470.999 177.4 470.679 179C470.359 180.6 470.093 182.573 469.879 184.92C471.639 180.333 473.613 176.6 475.799 173.72C477.986 170.84 480.119 168.787 482.199 167.56C484.333 166.333 486.279 165.72 488.039 165.72C491.506 165.72 493.239 167.453 493.239 170.92C493.239 173 492.653 176.76 491.479 182.2C490.466 186.84 489.959 189.907 489.959 191.4C489.959 193.533 490.733 194.6 492.279 194.6C493.346 194.6 494.599 193.96 496.039 192.68C497.533 191.347 499.506 189.213 501.959 186.28C502.599 185.533 503.319 185.16 504.119 185.16C504.813 185.16 505.346 185.48 505.719 186.12C506.146 186.76 506.359 187.64 506.359 188.76C506.359 190.893 505.853 192.547 504.839 193.72C502.546 196.547 500.066 198.867 497.399 200.68C494.786 202.493 491.799 203.4 488.439 203.4C485.719 203.4 483.666 202.627 482.279 201.08C480.893 199.48 480.199 197.187 480.199 194.2C480.199 192.707 480.573 190.04 481.319 186.2C482.013 182.84 482.359 180.52 482.359 179.24C482.359 178.387 482.066 177.96 481.479 177.96C480.786 177.96 479.799 178.867 478.519 180.68C477.293 182.44 476.013 184.787 474.679 187.72C473.399 190.653 472.359 193.747 471.559 197C470.973 199.507 470.279 201.213 469.479 202.12C468.733 202.973 467.533 203.4 465.879 203.4ZM528.527 187.56C529.22 187.56 529.754 187.88 530.127 188.52C530.554 189.16 530.767 190.04 530.767 191.16C530.767 193.08 530.314 194.733 529.407 196.12C527.914 198.413 525.94 200.2 523.487 201.48C521.087 202.76 518.207 203.4 514.847 203.4C509.727 203.4 505.754 201.88 502.927 198.84C500.1 195.747 498.687 191.587 498.687 186.36C498.687 182.68 499.46 179.267 501.007 176.12C502.554 172.92 504.687 170.387 507.407 168.52C510.18 166.653 513.3 165.72 516.767 165.72C519.86 165.72 522.34 166.653 524.207 168.52C526.074 170.333 527.007 172.813 527.007 175.96C527.007 179.64 525.674 182.813 523.007 185.48C520.394 188.093 515.914 190.173 509.567 191.72C510.847 194.173 513.007 195.4 516.047 195.4C518.234 195.4 520.02 194.893 521.407 193.88C522.847 192.867 524.5 191.16 526.367 188.76C527.007 187.96 527.727 187.56 528.527 187.56ZM515.407 173.56C513.434 173.56 511.754 174.707 510.367 177C509.034 179.293 508.367 182.067 508.367 185.32V185.48C511.514 184.733 513.994 183.613 515.807 182.12C517.62 180.627 518.527 178.893 518.527 176.92C518.527 175.907 518.234 175.107 517.647 174.52C517.114 173.88 516.367 173.56 515.407 173.56Z" fill="#121010"/>
</g>
<path d="M542 142.69C542 138.881 538.912 135.793 535.104 135.793C532.792 135.793 530.752 136.935 529.5 138.679C528.248 136.935 526.208 135.793 523.897 135.793C520.088 135.793 517 138.88 517 142.69C517 143.23 517.068 143.753 517.186 144.256C518.143 150.206 524.759 156.483 529.5 158.207C534.241 156.483 540.857 150.206 541.813 144.257C541.932 143.753 542 143.23 542 142.69Z" fill="#DD2E44"/>
<defs>
<filter id="filter0_d_20_13" x="72.76" y="127.8" width="462.007" height="119.6" filterUnits="userSpaceOnUse" color-interpolation-filters="sRGB">
<feFlood flood-opacity="0" result="BackgroundImageFix"/>
<feColorMatrix in="SourceAlpha" type="matrix" values="0 0 0 0 0 0 0 0 0 0 0 0 0 0 0 0 0 0 127 0" result="hardAlpha"/>
<feOffset dy="4"/>
<feGaussianBlur stdDeviation="2"/>
<feComposite in2="hardAlpha" operator="out"/>
<feColorMatrix type="matrix" values="0 0 0 0 0 0 0 0 0 0 0 0 0 0 0 0 0 0 0.25 0"/>
<feBlend mode="normal" in2="BackgroundImageFix" result="effect1_dropShadow_20_13"/>
<feBlend mode="normal" in="SourceGraphic" in2="effect1_dropShadow_20_13" result="shape"/>
</filter>
<radialGradient id="paint0_radial_20_13" cx="0" cy="0" r="1" gradientUnits="userSpaceOnUse" gradientTransform="translate(300 175) rotate(90) scale(175 300)">
<stop stop-color="white"/>
<stop offset="1" stop-color="#999999"/>
</radialGradient>
</defs>
</svg>
