<svg width="568" height="149" viewBox="0 0 568 149" fill="none" xmlns="http://www.w3.org/2000/svg">
<g filter="url(#filter0_d_28_2)">
<path d="M113.32 61.44C111.08 61.44 109.4 60.9333 108.28 59.92C107.16 58.8533 106.6 57.3867 106.6 55.52C106.6 53.6533 107.32 52.1067 108.76 50.88C110.253 49.6 112.093 48.96 114.28 48.96C116.253 48.96 117.853 49.44 119.08 50.4C120.307 51.36 120.92 52.72 120.92 54.48C120.92 56.6133 120.227 58.32 118.84 59.6C117.453 60.8267 115.613 61.44 113.32 61.44ZM112.68 104.4C109.213 104.4 106.68 103.173 105.08 100.72C103.533 98.2667 102.76 95.0133 102.76 90.96C102.76 88.56 103.053 85.4933 103.64 81.76C104.28 77.9733 105.08 74.4533 106.04 71.2C106.52 69.4933 107.16 68.32 107.96 67.68C108.76 67.04 110.04 66.72 111.8 66.72C114.52 66.72 115.88 67.6267 115.88 69.44C115.88 70.7733 115.373 73.8667 114.36 78.72C113.08 84.5867 112.44 88.56 112.44 90.64C112.44 92.24 112.653 93.4667 113.08 94.32C113.507 95.1733 114.227 95.6 115.24 95.6C116.2 95.6 117.4 94.9333 118.84 93.6C120.28 92.2667 122.2 90.16 124.6 87.28C125.24 86.5333 125.96 86.16 126.76 86.16C127.453 86.16 127.987 86.48 128.36 87.12C128.787 87.76 129 88.64 129 89.76C129 91.8933 128.493 93.5467 127.48 94.72C122.2 101.173 117.267 104.4 112.68 104.4ZM145.648 92.72C146.234 92.1867 146.821 91.92 147.408 91.92C148.048 91.92 148.554 92.2933 148.928 93.04C149.354 93.7333 149.568 94.5867 149.568 95.6C149.568 97.84 148.768 99.6267 147.168 100.96C144.394 103.253 141.248 104.4 137.728 104.4C132.661 104.4 128.954 102.293 126.608 98.08C124.261 93.8133 123.088 88.2667 123.088 81.44C123.088 74.9333 123.914 67.52 125.568 59.2C127.274 50.88 129.754 43.7333 133.008 37.76C136.314 31.7867 140.234 28.8 144.768 28.8C147.328 28.8 149.328 30 150.768 32.4C152.261 34.7467 153.008 38.1333 153.008 42.56C153.008 48.9067 151.248 56.2667 147.728 64.64C144.261 73.0133 139.514 81.28 133.488 89.44C133.861 91.6267 134.528 93.2 135.488 94.16C136.448 95.12 137.754 95.6 139.408 95.6C140.314 95.6 141.328 95.3333 142.448 94.8C143.621 94.2667 144.688 93.5733 145.648 92.72ZM143.008 36.72C141.781 36.72 140.394 38.9333 138.848 43.36C137.301 47.7867 135.941 53.28 134.768 59.84C133.594 66.4 132.954 72.6933 132.848 78.72C136.634 72.48 139.648 66.24 141.888 60C144.128 53.7067 145.248 47.9733 145.248 42.8C145.248 38.7467 144.501 36.72 143.008 36.72ZM218.593 86.16C219.286 86.16 219.819 86.48 220.193 87.12C220.619 87.76 220.833 88.64 220.833 89.76C220.833 91.8933 220.326 93.5467 219.312 94.72C217.126 97.3867 214.726 99.68 212.113 101.6C209.499 103.467 206.913 104.4 204.353 104.4C200.299 104.4 197.206 102.027 195.073 97.28C192.833 100.107 190.859 102 189.153 102.96C187.499 103.92 185.553 104.4 183.313 104.4C180.059 104.4 177.366 103.2 175.233 100.8C173.153 98.3467 172.113 95.1733 172.113 91.28C172.113 87.0133 173.019 83.0667 174.833 79.44C176.646 75.76 179.126 72.7733 182.273 70.48C185.473 68.1333 189.046 66.7467 192.993 66.32C194.006 55.9733 195.926 47.1467 198.753 39.84C201.633 32.48 205.393 28.8 210.033 28.8C212.326 28.8 214.219 29.84 215.713 31.92C217.259 34 218.033 37.1467 218.033 41.36C218.033 47.3333 216.566 54.32 213.633 62.32C210.699 70.32 206.779 78.5333 201.873 86.96C202.086 90.0533 202.539 92.2667 203.233 93.6C203.979 94.9333 204.913 95.6 206.033 95.6C207.473 95.6 208.939 94.96 210.432 93.68C211.926 92.4 213.926 90.2667 216.433 87.28C217.073 86.5333 217.793 86.16 218.593 86.16ZM209.153 36.64C208.139 36.64 207.126 38.4533 206.113 42.08C205.099 45.6533 204.219 50.3467 203.473 56.16C202.779 61.9733 202.273 68.0533 201.953 74.4C207.926 61.3867 210.913 50.9333 210.913 43.04C210.913 41.0133 210.726 39.44 210.353 38.32C210.033 37.2 209.633 36.64 209.153 36.64ZM186.113 96.32C187.126 96.32 188.139 95.92 189.153 95.12C190.166 94.2667 191.446 92.72 192.993 90.48C192.459 87.6 192.193 84.3733 192.193 80.8C192.193 79.52 192.246 77.44 192.353 74.56C189.419 75.4667 186.966 77.44 184.993 80.48C183.073 83.4667 182.113 86.8 182.113 90.48C182.113 94.3733 183.446 96.32 186.113 96.32ZM255.124 79.44C255.818 79.44 256.351 79.7867 256.724 80.48C257.098 81.1733 257.284 82.0533 257.284 83.12C257.284 85.68 256.511 87.2 254.964 87.68C251.764 88.8 248.244 89.44 244.404 89.6C243.391 94.08 241.391 97.68 238.404 100.4C235.418 103.067 232.031 104.4 228.244 104.4C225.044 104.4 222.298 103.627 220.004 102.08C217.764 100.533 216.058 98.48 214.884 95.92C213.711 93.36 213.124 90.5867 213.124 87.6C213.124 83.5467 213.898 79.9467 215.444 76.8C216.991 73.6 219.124 71.12 221.844 69.36C224.564 67.5467 227.578 66.64 230.884 66.64C234.938 66.64 238.191 68.0533 240.644 70.88C243.151 73.6533 244.618 77.0933 245.044 81.2C247.551 81.04 250.538 80.5067 254.004 79.6C254.431 79.4933 254.804 79.44 255.124 79.44ZM228.884 95.92C230.591 95.92 232.058 95.2267 233.284 93.84C234.564 92.4533 235.418 90.4533 235.844 87.84C234.191 86.72 232.911 85.2533 232.004 83.44C231.151 81.6267 230.724 79.7067 230.724 77.68C230.724 76.8267 230.804 75.9733 230.964 75.12H230.564C228.431 75.12 226.644 76.16 225.204 78.24C223.818 80.2667 223.124 83.1467 223.124 86.88C223.124 89.8133 223.684 92.0533 224.804 93.6C225.978 95.1467 227.338 95.92 228.884 95.92ZM256.098 104.4C254.071 104.4 252.631 103.333 251.778 101.2C250.978 99.0667 250.578 95.6533 250.578 90.96C250.578 84.0267 251.565 77.44 253.538 71.2C254.018 69.6533 254.791 68.5333 255.858 67.84C256.978 67.0933 258.525 66.72 260.498 66.72C261.565 66.72 262.311 66.8533 262.738 67.12C263.165 67.3867 263.378 67.8933 263.378 68.64C263.378 69.4933 262.978 71.4133 262.178 74.4C261.645 76.5333 261.218 78.4 260.898 80C260.578 81.6 260.311 83.5733 260.098 85.92C261.858 81.3333 263.831 77.6 266.018 74.72C268.205 71.84 270.338 69.7867 272.418 68.56C274.551 67.3333 276.498 66.72 278.258 66.72C281.725 66.72 283.458 68.4533 283.458 71.92C283.458 72.6133 283.218 74.2933 282.738 76.96C282.311 79.0933 282.098 80.4267 282.098 80.96C282.098 82.8267 282.765 83.76 284.098 83.76C285.591 83.76 287.511 82.5867 289.858 80.24C290.551 79.5467 291.271 79.2 292.018 79.2C292.711 79.2 293.245 79.52 293.618 80.16C294.045 80.7467 294.258 81.5467 294.258 82.56C294.258 84.5333 293.725 86.08 292.658 87.2C291.165 88.7467 289.405 90.08 287.378 91.2C285.405 92.2667 283.298 92.8 281.058 92.8C278.231 92.8 276.071 92.08 274.578 90.64C273.138 89.2 272.418 87.2533 272.418 84.8C272.418 84 272.498 83.2 272.658 82.4C272.765 81.3333 272.818 80.6133 272.818 80.24C272.818 79.3867 272.525 78.96 271.938 78.96C271.138 78.96 270.071 79.8667 268.738 81.68C267.458 83.44 266.178 85.7867 264.898 88.72C263.618 91.6533 262.578 94.7467 261.778 98C261.191 100.507 260.498 102.213 259.698 103.12C258.951 103.973 257.751 104.4 256.098 104.4ZM292.504 104.4C290.478 104.4 289.038 103.333 288.184 101.2C287.384 99.0667 286.984 95.6533 286.984 90.96C286.984 84.0267 287.971 77.44 289.944 71.2C290.424 69.6533 291.198 68.5333 292.264 67.84C293.384 67.0933 294.931 66.72 296.904 66.72C297.971 66.72 298.718 66.8533 299.144 67.12C299.571 67.3867 299.784 67.8933 299.784 68.64C299.784 69.4933 299.384 71.4133 298.584 74.4C298.051 76.5333 297.624 78.4 297.304 80C296.984 81.5467 296.718 83.4933 296.504 85.84C297.944 81.68 299.651 78.16 301.624 75.28C303.651 72.4 305.704 70.2667 307.784 68.88C309.918 67.44 311.918 66.72 313.784 66.72C315.651 66.72 316.958 67.1467 317.704 68C318.504 68.8533 318.904 70.16 318.904 71.92C318.904 73.6267 318.398 76.72 317.384 81.2C316.958 83.12 316.664 84.56 316.504 85.52C319.171 78.96 322.131 74.1867 325.384 71.2C328.638 68.2133 331.678 66.72 334.504 66.72C337.971 66.72 339.704 68.4533 339.704 71.92C339.704 74 339.118 77.76 337.944 83.2C336.931 87.84 336.424 90.9067 336.424 92.4C336.424 94.5333 337.198 95.6 338.744 95.6C339.811 95.6 341.064 94.96 342.504 93.68C343.998 92.3467 345.971 90.2133 348.424 87.28C349.064 86.5333 349.784 86.16 350.584 86.16C351.278 86.16 351.811 86.48 352.184 87.12C352.611 87.76 352.824 88.64 352.824 89.76C352.824 91.8933 352.318 93.5467 351.304 94.72C349.011 97.5467 346.531 99.8667 343.864 101.68C341.251 103.493 338.264 104.4 334.904 104.4C332.184 104.4 330.131 103.627 328.744 102.08C327.358 100.48 326.664 98.1867 326.664 95.2C326.664 93.7067 327.038 91.04 327.784 87.2C328.478 83.84 328.824 81.52 328.824 80.24C328.824 79.3867 328.531 78.96 327.944 78.96C327.251 78.96 326.264 79.8667 324.984 81.68C323.704 83.44 322.424 85.7867 321.144 88.72C319.864 91.6533 318.824 94.7467 318.024 98C317.438 100.56 316.744 102.267 315.944 103.12C315.198 103.973 313.971 104.4 312.264 104.4C310.504 104.4 309.171 103.573 308.264 101.92C307.411 100.213 306.984 98.16 306.984 95.76C306.984 93.7333 307.251 90.8 307.784 86.96C308.211 83.5467 308.424 81.3067 308.424 80.24C308.424 79.3867 308.131 78.96 307.544 78.96C306.744 78.96 305.731 79.92 304.504 81.84C303.278 83.76 302.078 86.2133 300.904 89.2C299.784 92.1867 298.878 95.12 298.184 98C297.598 100.507 296.904 102.213 296.104 103.12C295.358 103.973 294.158 104.4 292.504 104.4ZM356.836 61.44C354.596 61.44 352.916 60.9333 351.796 59.92C350.676 58.8533 350.116 57.3867 350.116 55.52C350.116 53.6533 350.836 52.1067 352.276 50.88C353.769 49.6 355.609 48.96 357.796 48.96C359.769 48.96 361.369 49.44 362.596 50.4C363.822 51.36 364.436 52.72 364.436 54.48C364.436 56.6133 363.742 58.32 362.356 59.6C360.969 60.8267 359.129 61.44 356.836 61.44ZM356.196 104.4C352.729 104.4 350.196 103.173 348.596 100.72C347.049 98.2667 346.276 95.0133 346.276 90.96C346.276 88.56 346.569 85.4933 347.156 81.76C347.796 77.9733 348.596 74.4533 349.556 71.2C350.036 69.4933 350.676 68.32 351.476 67.68C352.276 67.04 353.556 66.72 355.316 66.72C358.036 66.72 359.396 67.6267 359.396 69.44C359.396 70.7733 358.889 73.8667 357.876 78.72C356.596 84.5867 355.956 88.56 355.956 90.64C355.956 92.24 356.169 93.4667 356.596 94.32C357.022 95.1733 357.742 95.6 358.756 95.6C359.716 95.6 360.916 94.9333 362.356 93.6C363.796 92.2667 365.716 90.16 368.116 87.28C368.756 86.5333 369.476 86.16 370.276 86.16C370.969 86.16 371.502 86.48 371.876 87.12C372.302 87.76 372.516 88.64 372.516 89.76C372.516 91.8933 372.009 93.5467 370.996 94.72C365.716 101.173 360.782 104.4 356.196 104.4ZM407.003 86.32C407.696 86.32 408.23 86.6667 408.603 87.36C409.03 88 409.243 88.8267 409.243 89.84C409.243 91.0667 409.056 92.0267 408.683 92.72C408.31 93.4133 407.723 94.0267 406.923 94.56C402.336 97.6533 398.976 99.9467 396.843 101.44L391.723 104.88C389.696 115.92 387.03 124.587 383.723 130.88C380.47 137.227 376.31 140.4 371.243 140.4C368.523 140.4 366.31 139.547 364.603 137.84C362.896 136.187 362.043 134 362.043 131.28C362.043 127.493 363.536 123.413 366.523 119.04C369.51 114.72 375.11 109.387 383.323 103.04L383.803 99.92C382.896 101.36 381.696 102.48 380.203 103.28C378.763 104.027 377.323 104.4 375.883 104.4C372.576 104.4 369.936 103.2 367.963 100.8C365.99 98.4 365.003 95.2533 365.003 91.36C365.003 87.0933 365.99 83.0667 367.963 79.28C369.936 75.44 372.55 72.3733 375.803 70.08C379.11 67.7333 382.603 66.56 386.283 66.56C387.456 66.56 388.23 66.8 388.603 67.28C389.03 67.7067 389.376 68.5067 389.643 69.68C390.656 69.4667 391.83 69.36 393.163 69.36C394.496 69.36 395.43 69.5733 395.963 70C396.55 70.3733 396.843 71.1467 396.843 72.32C396.843 72.96 396.816 73.4667 396.763 73.84C396.55 75.4933 395.883 79.68 394.763 86.4C394.55 87.68 394.31 89.0933 394.043 90.64C393.83 92.1333 393.59 93.7333 393.323 95.44C397.43 92.24 401.376 89.4133 405.163 86.96C405.856 86.5333 406.47 86.32 407.003 86.32ZM378.763 96.32C379.99 96.32 381.163 95.5733 382.283 94.08C383.403 92.5867 384.203 90.4533 384.683 87.68L387.243 74C385.056 74.0533 383.03 74.9067 381.163 76.56C379.296 78.16 377.803 80.2933 376.683 82.96C375.563 85.6267 375.003 88.4533 375.003 91.44C375.003 93.0933 375.323 94.32 375.963 95.12C376.656 95.92 377.59 96.32 378.763 96.32ZM372.123 132.64C373.456 132.64 374.95 131.04 376.603 127.84C378.31 124.64 379.936 119.547 381.483 112.56C377.376 116.08 374.416 119.253 372.603 122.08C370.79 124.907 369.883 127.387 369.883 129.52C369.883 130.427 370.043 131.173 370.363 131.76C370.736 132.347 371.323 132.64 372.123 132.64ZM434.644 86.16C435.338 86.16 435.871 86.48 436.244 87.12C436.671 87.76 436.884 88.64 436.884 89.76C436.884 91.8933 436.378 93.5467 435.364 94.72C433.071 97.5467 430.564 99.8667 427.844 101.68C425.178 103.493 422.138 104.4 418.724 104.4C414.031 104.4 410.538 102.267 408.244 98C406.004 93.7333 404.884 88.2133 404.884 81.44C404.884 74.9333 405.711 67.52 407.364 59.2C409.071 50.88 411.551 43.7333 414.804 37.76C418.111 31.7867 422.031 28.8 426.564 28.8C429.124 28.8 431.124 30 432.564 32.4C434.058 34.7467 434.804 38.1333 434.804 42.56C434.804 48.9067 433.044 56.2667 429.524 64.64C426.004 73.0133 421.231 81.3067 415.204 89.52C415.578 91.7067 416.191 93.28 417.044 94.24C417.898 95.1467 419.018 95.6 420.404 95.6C422.591 95.6 424.511 94.9867 426.164 93.76C427.818 92.48 429.924 90.32 432.484 87.28C433.124 86.5333 433.844 86.16 434.644 86.16ZM424.804 36.72C423.578 36.72 422.191 38.9333 420.644 43.36C419.098 47.7867 417.738 53.28 416.564 59.84C415.391 66.4 414.751 72.6933 414.644 78.72C418.431 72.48 421.444 66.24 423.684 60C425.924 53.7067 427.044 47.9733 427.044 42.8C427.044 38.7467 426.298 36.72 424.804 36.72ZM440.898 61.44C438.658 61.44 436.978 60.9333 435.858 59.92C434.738 58.8533 434.178 57.3867 434.178 55.52C434.178 53.6533 434.898 52.1067 436.338 50.88C437.831 49.6 439.671 48.96 441.858 48.96C443.831 48.96 445.431 49.44 446.658 50.4C447.885 51.36 448.498 52.72 448.498 54.48C448.498 56.6133 447.805 58.32 446.418 59.6C445.031 60.8267 443.191 61.44 440.898 61.44ZM440.258 104.4C436.791 104.4 434.258 103.173 432.658 100.72C431.111 98.2667 430.338 95.0133 430.338 90.96C430.338 88.56 430.631 85.4933 431.218 81.76C431.858 77.9733 432.658 74.4533 433.618 71.2C434.098 69.4933 434.738 68.32 435.538 67.68C436.338 67.04 437.618 66.72 439.378 66.72C442.098 66.72 443.458 67.6267 443.458 69.44C443.458 70.7733 442.951 73.8667 441.938 78.72C440.658 84.5867 440.018 88.56 440.018 90.64C440.018 92.24 440.231 93.4667 440.658 94.32C441.085 95.1733 441.805 95.6 442.818 95.6C443.778 95.6 444.978 94.9333 446.418 93.6C447.858 92.2667 449.778 90.16 452.178 87.28C452.818 86.5333 453.538 86.16 454.338 86.16C455.031 86.16 455.565 86.48 455.938 87.12C456.365 87.76 456.578 88.64 456.578 89.76C456.578 91.8933 456.071 93.5467 455.058 94.72C449.778 101.173 444.845 104.4 440.258 104.4ZM490.906 79.44C491.599 79.44 492.132 79.7867 492.506 80.48C492.879 81.1733 493.066 82.0533 493.066 83.12C493.066 85.68 492.292 87.2 490.746 87.68C487.546 88.8 484.026 89.44 480.186 89.6C479.172 94.08 477.172 97.68 474.186 100.4C471.199 103.067 467.812 104.4 464.026 104.4C460.826 104.4 458.079 103.627 455.786 102.08C453.546 100.533 451.839 98.48 450.666 95.92C449.492 93.36 448.906 90.5867 448.906 87.6C448.906 83.5467 449.679 79.9467 451.226 76.8C452.772 73.6 454.906 71.12 457.626 69.36C460.346 67.5467 463.359 66.64 466.666 66.64C470.719 66.64 473.972 68.0533 476.426 70.88C478.932 73.6533 480.399 77.0933 480.826 81.2C483.332 81.04 486.319 80.5067 489.786 79.6C490.212 79.4933 490.586 79.44 490.906 79.44ZM464.666 95.92C466.372 95.92 467.839 95.2267 469.066 93.84C470.346 92.4533 471.199 90.4533 471.626 87.84C469.972 86.72 468.692 85.2533 467.786 83.44C466.932 81.6267 466.506 79.7067 466.506 77.68C466.506 76.8267 466.586 75.9733 466.746 75.12H466.346C464.212 75.12 462.426 76.16 460.986 78.24C459.599 80.2667 458.906 83.1467 458.906 86.88C458.906 89.8133 459.466 92.0533 460.586 93.6C461.759 95.1467 463.119 95.92 464.666 95.92ZM491.879 104.4C489.853 104.4 488.413 103.333 487.559 101.2C486.759 99.0667 486.359 95.6533 486.359 90.96C486.359 84.0267 487.346 77.44 489.319 71.2C489.799 69.6533 490.573 68.5333 491.639 67.84C492.759 67.0933 494.306 66.72 496.279 66.72C497.346 66.72 498.093 66.8533 498.519 67.12C498.946 67.3867 499.159 67.8933 499.159 68.64C499.159 69.4933 498.759 71.4133 497.959 74.4C497.426 76.5333 496.999 78.4 496.679 80C496.359 81.6 496.093 83.5733 495.879 85.92C497.639 81.3333 499.613 77.6 501.799 74.72C503.986 71.84 506.119 69.7867 508.199 68.56C510.333 67.3333 512.279 66.72 514.039 66.72C517.506 66.72 519.239 68.4533 519.239 71.92C519.239 74 518.653 77.76 517.479 83.2C516.466 87.84 515.959 90.9067 515.959 92.4C515.959 94.5333 516.733 95.6 518.279 95.6C519.346 95.6 520.599 94.96 522.039 93.68C523.533 92.3467 525.506 90.2133 527.959 87.28C528.599 86.5333 529.319 86.16 530.119 86.16C530.813 86.16 531.346 86.48 531.719 87.12C532.146 87.76 532.359 88.64 532.359 89.76C532.359 91.8933 531.853 93.5467 530.839 94.72C528.546 97.5467 526.066 99.8667 523.399 101.68C520.786 103.493 517.799 104.4 514.439 104.4C511.719 104.4 509.666 103.627 508.279 102.08C506.893 100.48 506.199 98.1867 506.199 95.2C506.199 93.7067 506.573 91.04 507.319 87.2C508.013 83.84 508.359 81.52 508.359 80.24C508.359 79.3867 508.066 78.96 507.479 78.96C506.786 78.96 505.799 79.8667 504.519 81.68C503.293 83.44 502.013 85.7867 500.679 88.72C499.399 91.6533 498.359 94.7467 497.559 98C496.973 100.507 496.279 102.213 495.479 103.12C494.733 103.973 493.533 104.4 491.879 104.4ZM554.527 88.56C555.22 88.56 555.754 88.88 556.127 89.52C556.554 90.16 556.767 91.04 556.767 92.16C556.767 94.08 556.314 95.7333 555.407 97.12C553.914 99.4133 551.94 101.2 549.487 102.48C547.087 103.76 544.207 104.4 540.847 104.4C535.727 104.4 531.754 102.88 528.927 99.84C526.1 96.7467 524.687 92.5867 524.687 87.36C524.687 83.68 525.46 80.2667 527.007 77.12C528.554 73.92 530.687 71.3867 533.407 69.52C536.18 67.6533 539.3 66.72 542.767 66.72C545.86 66.72 548.34 67.6533 550.207 69.52C552.074 71.3333 553.007 73.8133 553.007 76.96C553.007 80.64 551.674 83.8133 549.007 86.48C546.394 89.0933 541.914 91.1733 535.567 92.72C536.847 95.1733 539.007 96.4 542.047 96.4C544.234 96.4 546.02 95.8933 547.407 94.88C548.847 93.8667 550.5 92.16 552.367 89.76C553.007 88.96 553.727 88.56 554.527 88.56ZM541.407 74.56C539.434 74.56 537.754 75.7067 536.367 78C535.034 80.2933 534.367 83.0667 534.367 86.32V86.48C537.514 85.7333 539.994 84.6133 541.807 83.12C543.62 81.6267 544.527 79.8933 544.527 77.92C544.527 76.9067 544.234 76.1067 543.647 75.52C543.114 74.88 542.367 74.56 541.407 74.56Z" fill="#121010"/>
</g>
<path d="M568 43.6902C568 39.8811 564.912 36.7933 561.104 36.7933C558.792 36.7933 556.752 37.9347 555.5 39.6791C554.248 37.9347 552.208 36.7933 549.897 36.7933C546.088 36.7933 543 39.8804 543 43.6902C543 44.2297 543.068 44.7525 543.186 45.2564C544.143 51.2063 550.759 57.4832 555.5 59.2067C560.241 57.4832 566.857 51.2063 567.813 45.2571C567.932 44.7532 568 44.2304 568 43.6902Z" fill="#DD2E44"/>
<g clip-path="url(#clip0_28_2)">
<path d="M39.5 116C61.3152 116 79 98.3152 79 76.5C79 54.6848 61.3152 37 39.5 37C17.6848 37 0 54.6848 0 76.5C0 98.3152 17.6848 116 39.5 116Z" fill="#FFCC4D"/>
<path d="M39.5001 100.639C43.136 100.639 46.0834 97.6914 46.0834 94.0555C46.0834 90.4196 43.136 87.4722 39.5001 87.4722C35.8642 87.4722 32.9167 90.4196 32.9167 94.0555C32.9167 97.6914 35.8642 100.639 39.5001 100.639Z" fill="#664500"/>
<path d="M37.9902 73.4541C37.8016 73.3023 37.5682 73.217 37.3262 73.2114C37.0841 73.2059 36.847 73.2804 36.6516 73.4233C36.6253 73.4431 33.8866 75.4027 28.5278 75.4027C23.1712 75.4027 20.4303 73.4431 20.4084 73.4277C20.214 73.2819 19.9769 73.2047 19.734 73.2082C19.4911 73.2118 19.2562 73.2958 19.0662 73.4471C18.8762 73.5985 18.7418 73.8086 18.684 74.0446C18.6263 74.2805 18.6485 74.529 18.7472 74.751C18.8788 75.0472 22.0388 81.9861 28.5278 81.9861C35.019 81.9861 38.1768 75.0472 38.3084 74.751C38.4062 74.53 38.428 74.2829 38.3705 74.0483C38.3129 73.8136 38.1792 73.6047 37.9902 73.4541ZM59.9347 73.4541C59.7462 73.3019 59.5127 73.2164 59.2706 73.2108C59.0285 73.2053 58.7913 73.28 58.5961 73.4233C58.5697 73.4431 55.8289 75.4027 50.4722 75.4027C45.1178 75.4027 42.3747 73.4431 42.3528 73.4277C42.1585 73.2819 41.9213 73.2047 41.6784 73.2082C41.4355 73.2118 41.2006 73.2958 41.0106 73.4471C40.8206 73.5985 40.6862 73.8086 40.6285 74.0446C40.5707 74.2805 40.5929 74.529 40.6916 74.751C40.8233 75.0472 43.9833 81.9861 50.4722 81.9861C56.9634 81.9861 60.1212 75.0472 60.2529 74.751C60.3507 74.53 60.3725 74.2829 60.3149 74.0483C60.2573 73.8136 60.1236 73.6047 59.9347 73.4541Z" fill="#664500"/>
<path d="M75.5548 64.5051C75.5635 64.4086 75.6052 64.3361 75.6052 64.2352C75.6052 62.5806 74.4027 61.6282 72.917 61.6282H65.0565L74.4466 48.4769C74.8986 47.8559 75.0654 47.4828 75.0654 46.6972C75.0654 45.0843 73.6609 44.8341 73.1233 44.8341H61.3852L61.315 43.3243C61.315 43.3243 58.223 45.1479 58.0168 45.273C57.8105 45.3981 56.9086 46.0893 56.9086 47.4389C56.9086 49.0935 58.1067 50.0437 59.5968 50.0437H66.5071L57.1565 63.195C56.9503 63.5264 56.6211 64.1452 56.6211 64.808C56.6211 66.1729 57.7359 66.8356 59.0591 66.8356H72.917C73.4832 66.8356 74.0472 66.6688 74.4115 66.4494L77.7097 64.5007H75.5548V64.5051Z" fill="#FFAC33"/>
<path d="M69.7197 48.1565H62.8094C61.3194 48.1565 60.1212 47.2063 60.1212 45.5517C60.1212 43.8971 61.3194 42.9447 62.8094 42.9447H76.336C76.8736 42.9447 78.278 43.1927 78.278 44.8056C78.278 45.5912 78.1113 45.9643 77.6592 46.5853L68.2692 59.7366H76.1297C77.6153 59.7366 78.8179 60.6868 78.8179 62.3414C78.8179 63.996 77.6153 64.9462 76.1297 64.9462H62.2718C60.9485 64.9462 59.8337 64.2835 59.8337 62.9185C59.8337 62.2558 60.1629 61.637 60.3692 61.3056L69.7197 48.1565Z" fill="#2A6797"/>
<path d="M54.6109 53.4144C54.6175 53.342 54.6504 53.2872 54.6504 53.2125C54.6504 51.9749 53.7507 51.2617 52.6381 51.2617H46.7526L53.7814 41.4152C54.1238 40.95 54.2466 40.6713 54.2466 40.0854C54.2466 38.8784 53.1955 38.6919 52.7917 38.6919H44.0052L43.9525 37.5618C43.9525 37.5618 41.6374 38.9267 41.4838 39.0211C41.223 39.2026 41.011 39.4454 40.8663 39.7282C40.7216 40.0111 40.6488 40.3251 40.6543 40.6428C40.6543 41.8804 41.5518 42.5936 42.6666 42.5936H47.8389L40.8386 52.4401C40.685 52.6881 40.437 53.1511 40.437 53.647C40.437 54.6697 41.2709 55.1634 42.2628 55.1634H52.6381C53.0616 55.1634 53.483 55.0383 53.7573 54.8737L56.226 53.4144H54.6109Z" fill="#FFAC33"/>
<path d="M50.2439 41.176H45.0716C43.9568 41.176 43.0593 40.465 43.0593 39.2252C43.0593 37.9875 43.9568 37.2743 45.0716 37.2743H55.199C55.6027 37.2743 56.6539 37.4608 56.6539 38.6678C56.6539 39.2559 56.5288 39.5346 56.1908 39.9998L49.162 49.8463H55.0475C56.1557 49.8463 57.0555 50.5573 57.0555 51.7971C57.0555 53.037 56.1557 53.748 55.0432 53.748H44.6678C43.6759 53.748 42.842 53.252 42.842 52.2316C42.842 51.7357 43.09 51.2727 43.2436 51.0247L50.2439 41.176Z" fill="#2A6797"/>
<path d="M38.9317 59.8771C38.9383 59.8156 38.9646 59.7696 38.9646 59.7037C38.9646 58.6438 38.1943 58.0338 37.2419 58.0338H32.2057L38.2229 49.6071C38.5125 49.2099 38.6201 48.9707 38.6201 48.4682C38.6201 47.4346 37.7203 47.2744 37.3758 47.2744H29.8554L29.8094 46.3066L27.6961 47.5553C27.4725 47.7105 27.2906 47.9184 27.1666 48.1607C27.0425 48.403 26.9802 48.6722 26.9851 48.9444C26.9851 50.0043 27.7532 50.6143 28.7078 50.6143H33.1339L27.1431 59.041C27.0114 59.2539 26.7986 59.6511 26.7986 60.0746C26.7986 60.9502 27.514 61.3737 28.361 61.3737H37.2419C37.604 61.3737 37.9661 61.2662 38.1987 61.1257L40.312 59.8771H38.9317Z" fill="#FFAC33"/>
<path d="M35.1923 49.4031H30.7661C29.8115 49.4031 29.0435 48.793 29.0435 47.7331C29.0435 46.6732 29.8115 46.0631 30.7661 46.0631H39.4342C39.7787 46.0631 40.6784 46.2233 40.6784 47.2569C40.6784 47.7594 40.5731 47.9986 40.2812 48.3958L34.264 56.8225H39.3003C40.2527 56.8225 41.0229 57.4325 41.0229 58.4924C41.0229 59.5524 40.2527 60.1624 39.3003 60.1624H30.4194C29.5723 60.1624 28.8569 59.7389 28.8569 58.8633C28.8569 58.4398 29.0676 58.0426 29.2015 57.8297L35.1923 49.4031Z" fill="#2A6797"/>
</g>
<defs>
<filter id="filter0_d_28_2" x="98.76" y="28.8" width="462.007" height="119.6" filterUnits="userSpaceOnUse" color-interpolation-filters="sRGB">
<feFlood flood-opacity="0" result="BackgroundImageFix"/>
<feColorMatrix in="SourceAlpha" type="matrix" values="0 0 0 0 0 0 0 0 0 0 0 0 0 0 0 0 0 0 127 0" result="hardAlpha"/>
<feOffset dy="4"/>
<feGaussianBlur stdDeviation="2"/>
<feComposite in2="hardAlpha" operator="out"/>
<feColorMatrix type="matrix" values="0 0 0 0 0 0 0 0 0 0 0 0 0 0 0 0 0 0 0.25 0"/>
<feBlend mode="normal" in2="BackgroundImageFix" result="effect1_dropShadow_28_2"/>
<feBlend mode="normal" in="SourceGraphic" in2="effect1_dropShadow_28_2" result="shape"/>
</filter>
<clipPath id="clip0_28_2">
<rect width="79" height="79" fill="white" transform="translate(0 37)"/>
</clipPath>
</defs>
</svg>
