<svg width="48" height="48" viewBox="0 0 48 48" fill="none" xmlns="http://www.w3.org/2000/svg">
<g clip-path="url(#clip0_20_2)">
<path d="M24 48C37.2548 48 48 37.2548 48 24C48 10.7452 37.2548 0 24 0C10.7452 0 0 10.7452 0 24C0 37.2548 10.7452 48 24 48Z" fill="#FFCC4D"/>
<path d="M24 38.6667C26.2091 38.6667 28 36.8758 28 34.6667C28 32.4575 26.2091 30.6667 24 30.6667C21.7909 30.6667 20 32.4575 20 34.6667C20 36.8758 21.7909 38.6667 24 38.6667Z" fill="#664500"/>
<path d="M23.0827 22.1493C22.9681 22.0571 22.8262 22.0053 22.6792 22.0019C22.5321 21.9985 22.388 22.0438 22.2693 22.1306C22.2533 22.1426 20.5893 23.3333 17.3333 23.3333C14.0787 23.3333 12.4133 22.1426 12.4 22.1333C12.2819 22.0447 12.1378 21.9978 11.9902 21.9999C11.8426 22.0021 11.6999 22.0531 11.5845 22.1451C11.469 22.2371 11.3874 22.3647 11.3523 22.5081C11.3172 22.6515 11.3307 22.8024 11.3907 22.9373C11.4707 23.1173 13.3907 27.3333 17.3333 27.3333C21.2773 27.3333 23.196 23.1173 23.276 22.9373C23.3354 22.8031 23.3487 22.6529 23.3137 22.5103C23.2787 22.3678 23.1975 22.2408 23.0827 22.1493ZM36.416 22.1493C36.3015 22.0569 36.1596 22.0049 36.0125 22.0015C35.8654 21.9982 35.7213 22.0435 35.6026 22.1306C35.5866 22.1426 33.9213 23.3333 30.6667 23.3333C27.4133 23.3333 25.7466 22.1426 25.7333 22.1333C25.6153 22.0447 25.4711 21.9978 25.3236 21.9999C25.176 22.0021 25.0333 22.0531 24.9178 22.1451C24.8024 22.2371 24.7207 22.3647 24.6856 22.5081C24.6505 22.6515 24.664 22.8024 24.724 22.9373C24.804 23.1173 26.724 27.3333 30.6667 27.3333C34.6106 27.3333 36.5293 23.1173 36.6093 22.9373C36.6687 22.8031 36.682 22.6529 36.647 22.5103C36.612 22.3678 36.5308 22.2408 36.416 22.1493Z" fill="#664500"/>
<path d="M45.9066 16.712C45.912 16.6533 45.9373 16.6093 45.9373 16.548C45.9373 15.5427 45.2066 14.964 44.304 14.964H39.528L45.2333 6.97332C45.508 6.59598 45.6093 6.36932 45.6093 5.89198C45.6093 4.91198 44.756 4.75998 44.4293 4.75998H37.2973L37.2546 3.84265C37.2546 3.84265 35.376 4.95065 35.2506 5.02665C35.1253 5.10265 34.5773 5.52265 34.5773 6.34265C34.5773 7.34798 35.3053 7.92532 36.2107 7.92532H40.4093L34.728 15.916C34.6026 16.1173 34.4026 16.4933 34.4026 16.896C34.4026 17.7253 35.08 18.128 35.884 18.128H44.304C44.648 18.128 44.9906 18.0267 45.212 17.8933L47.216 16.7093H45.9066V16.712Z" fill="#FFAC33"/>
<path d="M42.3613 6.77867H38.1627C37.2573 6.77867 36.5293 6.20133 36.5293 5.196C36.5293 4.19067 37.2573 3.612 38.1627 3.612H46.3813C46.708 3.612 47.5613 3.76267 47.5613 4.74267C47.5613 5.22 47.46 5.44667 47.1853 5.824L41.48 13.8147H46.256C47.1587 13.8147 47.8893 14.392 47.8893 15.3973C47.8893 16.4027 47.1587 16.98 46.256 16.98H37.836C37.032 16.98 36.3547 16.5773 36.3547 15.748C36.3547 15.3453 36.5547 14.9693 36.68 14.768L42.3613 6.77867Z" fill="#2A6797"/>
<path d="M33.1813 9.97331C33.1853 9.92931 33.2053 9.89598 33.2053 9.85064C33.2053 9.09864 32.6587 8.66531 31.9827 8.66531H28.4067L32.6773 2.68264C32.8853 2.39998 32.96 2.23064 32.96 1.87464C32.96 1.14131 32.3213 1.02798 32.076 1.02798H26.7373L26.7053 0.341309C26.7053 0.341309 25.2987 1.17064 25.2053 1.22798C25.0469 1.33824 24.9181 1.48581 24.8302 1.65765C24.7423 1.82949 24.698 2.02032 24.7013 2.21331C24.7013 2.96531 25.2467 3.39864 25.924 3.39864H29.0667L24.8133 9.38131C24.72 9.53198 24.5693 9.81331 24.5693 10.1146C24.5693 10.736 25.076 11.036 25.6787 11.036H31.9827C32.24 11.036 32.496 10.96 32.6627 10.86L34.1627 9.97331H33.1813Z" fill="#FFAC33"/>
<path d="M30.528 2.53735H27.3853C26.708 2.53735 26.1626 2.10535 26.1626 1.35202C26.1626 0.60002 26.708 0.166687 27.3853 0.166687H33.5386C33.784 0.166687 34.4226 0.28002 34.4226 1.01335C34.4226 1.37069 34.3466 1.54002 34.1413 1.82269L29.8706 7.80535H33.4466C34.12 7.80535 34.6666 8.23735 34.6666 8.99069C34.6666 9.74402 34.12 10.176 33.444 10.176H27.14C26.5373 10.176 26.0306 9.87469 26.0306 9.25469C26.0306 8.95335 26.1813 8.67202 26.2746 8.52135L30.528 2.53735Z" fill="#2A6797"/>
<path d="M23.6547 13.9C23.6587 13.8627 23.6747 13.8347 23.6747 13.7947C23.6747 13.1507 23.2067 12.78 22.628 12.78H19.568L23.224 7.66C23.4 7.41866 23.4653 7.27333 23.4653 6.968C23.4653 6.34 22.9187 6.24266 22.7093 6.24266H18.14L18.112 5.65466L16.828 6.41333C16.6921 6.50762 16.5816 6.63398 16.5062 6.7812C16.4309 6.92843 16.393 7.09197 16.396 7.25733C16.396 7.90133 16.8627 8.272 17.4427 8.272H20.132L16.492 13.392C16.412 13.5213 16.2827 13.7627 16.2827 14.02C16.2827 14.552 16.7173 14.8093 17.232 14.8093H22.628C22.848 14.8093 23.068 14.744 23.2093 14.6587L24.4933 13.9H23.6547Z" fill="#FFAC33"/>
<path d="M21.3827 7.53599H18.6933C18.1133 7.53599 17.6467 7.16532 17.6467 6.52132C17.6467 5.87732 18.1133 5.50665 18.6933 5.50665H23.96C24.1693 5.50665 24.716 5.60399 24.716 6.23199C24.716 6.53732 24.652 6.68265 24.4747 6.92399L20.8187 12.044H23.8787C24.4573 12.044 24.9253 12.4147 24.9253 13.0587C24.9253 13.7027 24.4573 14.0733 23.8787 14.0733H18.4827C17.968 14.0733 17.5333 13.816 17.5333 13.284C17.5333 13.0267 17.6613 12.7853 17.7427 12.656L21.3827 7.53599Z" fill="#2A6797"/>
</g>
<defs>
<clipPath id="clip0_20_2">
<rect width="48" height="48" fill="white"/>
</clipPath>
</defs>
</svg>
